PathFileType	4	(X/Y/Z)	./resultDataOpenSim/trcMotMarkerGrf/sub10/qtm-12-04.trc
DataRate	CameraRate	NumFrames	NumMarkers	Units	OrigDataRate	OrigDataStartFrame	OrigNumFrames
250.000000	250.000000	13	24	m	250.000000	299	478
Frame#	Time	L.Toe.Tip			R.Toe.Tip			L.Ankle.Lat			R.Ankle.Lat			L.Ankle.Med			R.Ankle.Med			L.Heel			R.Heel			L.Knee.Lat			R.Knee.Lat			L.Knee.Med			R.Knee.Med			L.Thigh.Upper			R.Thigh.Upper			L.ASIS			R.ASIS			V.Sacral			L.Acromium			R.Acromium			C7			L.Elbow			R.Elbow			L.Wrist.Lat			R.Wrist.Lat
		X1	Y1	Z1	X2	Y2	Z2	X3	Y3	Z3	X4	Y4	Z4	X5	Y5	Z5	X6	Y6	Z6	X7	Y7	Z7	X8	Y8	Z8	X9	Y9	Z9	X10	Y10	Z10	X11	Y11	Z11	X12	Y12	Z12	X13	Y13	Z13	X14	Y14	Z14	X15	Y15	Z15	X16	Y16	Z16	X17	Y17	Z17	X18	Y18	Z18	X19	Y19	Z19	X20	Y20	Z20	X21	Y21	Z21	X22	Y22	Z22	X23	Y23	Z23	X24	Y24	Z24

299	1.192	0.025044375	0.023005255	-0.14927304	0.82089566	0.039875002	0.051693918	-0.01539321	0.15138227	-0.18005297	0.68043238	0.055664954	0.093818683	0.015681915	0.15135592	-0.10037158	0.69484373	0.077482017	0.0067824749	-0.069523676	0.18328324	-0.13028867	0.62825475	0.029666529	0.052164031	0.26308249	0.4179023	-0.19467093	0.67637053	0.45816125	0.09714739	0.28233608	0.37435017	-0.080870635	0.66322948	0.4579821	-0.0303576	0.40101785	0.77440084	-0.21887296	0.51219438	0.83210709	0.15826581	0.49019132	0.87587058	-0.1698132	0.55108324	0.91958225	0.061553187	0.32590762	0.90821951	-0.0040785709	0.43302152	1.3730036	-0.17929693	0.39916882	1.3590071	0.13911347	0.3363399	1.3883532	-0.031392567	0.42820733	1.0235578	-0.26875068	0.23561677	1.0652989	0.16217907	0.67842847	0.98624679	-0.29499073	0.18142027	0.87617957	0.30281335
300	1.196	0.027700379	0.024577102	-0.14945839	0.82123857	0.039595616	0.051921092	-0.00847506	0.15444111	-0.18078854	0.68059961	0.055624358	0.093873896	0.022551136	0.15376108	-0.10102652	0.69521187	0.077361181	0.0068388544	-0.061666944	0.18819751	-0.13093625	0.62837664	0.029711718	0.052183412	0.27280117	0.41722202	-0.19474199	0.68094636	0.45789299	0.097619592	0.29261067	0.37256353	-0.081195023	0.66791727	0.45815363	-0.029814056	0.40921062	0.77350044	-0.21810453	0.5185339	0.83353178	0.15928581	0.49757661	0.87568942	-0.16809225	0.55759567	0.92075286	0.062820665	0.3331963	0.90881617	-0.0041868851	0.43940682	1.3736599	-0.17818074	0.40544248	1.3594749	0.14011414	0.34244913	1.3888657	-0.030351538	0.43338633	1.0243032	-0.26699334	0.24333323	1.0648352	0.16288295	0.68310421	0.9847962	-0.29350886	0.19025754	0.87551416	0.30368678
301	1.2	0.030546422	0.02624125	-0.14969486	0.82149239	0.039367267	0.052177034	-0.001334953	0.15759342	-0.18146619	0.68071836	0.055567237	0.093968426	0.029693508	0.15614508	-0.10156051	0.69551361	0.077282191	0.0069502273	-0.05340367	0.19317762	-0.13151104	0.62845674	0.029737491	0.052238394	0.28236105	0.41654082	-0.19481175	0.68513848	0.4576238	0.098208971	0.30308401	0.37072681	-0.081466035	0.67239356	0.45826138	-0.02927761	0.41728603	0.77269448	-0.21737956	0.52463656	0.83489684	0.16014152	0.50483822	0.87561546	-0.16646342	0.56400688	0.92191667	0.06396832	0.34022385	0.90943229	-0.0041673846	0.44574905	1.3743747	-0.17711702	0.41167358	1.3600009	0.14108765	0.34857564	1.3894252	-0.029423307	0.43864721	1.0250664	-0.26543249	0.25114275	1.0643627	0.16343311	0.68768865	0.98327199	-0.29207508	0.19924924	0.87481246	0.30454254
302	1.204	0.033649324	0.027989002	-0.14999528	0.82167097	0.039186158	0.052398125	0.006133498	0.16081481	-0.18210582	0.68082946	0.05548687	0.094077668	0.037137807	0.15850751	-0.10200221	0.69572316	0.077247237	0.0071115845	-0.044692093	0.19818461	-0.13202799	0.62850009	0.029751301	0.052326461	0.29185067	0.415876	-0.194884	0.68900464	0.45735076	0.098920833	0.31372842	0.36892069	-0.081701334	0.67668963	0.45829433	-0.028693586	0.4252471	0.77202017	-0.21667528	0.53052371	0.83618974	0.16083841	0.51193655	0.8756495	-0.16495047	0.57033171	0.92307652	0.065019067	0.34668532	0.91010881	-0.0038304783	0.45205485	1.375149	-0.176108	0.41786361	1.3605851	0.14203452	0.35472262	1.3900391	-0.028584495	0.44389113	1.0258547	-0.26397246	0.25906382	1.0638945	0.16378159	0.6921778	0.98168018	-0.29069892	0.20838498	0.87407612	0.30537235
303	1.208	0.037095729	0.02985114	-0.15036104	0.82179506	0.039042921	0.052580498	0.013973596	0.1640755	-0.18269734	0.68097626	0.055382454	0.094159667	0.044877916	0.16091377	-0.10242981	0.6958563	0.077252981	0.0073039409	-0.03553594	0.20316325	-0.13254137	0.6285219	0.029760007	0.05242158	0.30125371	0.41522702	-0.19497009	0.69260597	0.45707942	0.099748647	0.32460431	0.36725266	-0.081973817	0.68085289	0.45822762	-0.028029924	0.43310038	0.7715039	-0.21598312	0.53637052	0.83746498	0.16148437	0.51881163	0.87577881	-0.16360097	0.57657776	0.92422873	0.065987951	0.35257586	0.91084336	-0.0031754844	0.45832646	1.3759827	-0.17515232	0.42401938	1.3612205	0.14295822	0.36089313	1.3907427	-0.027818045	0.4486048	1.0268161	-0.26211383	0.26702754	1.0634521	0.16412597	0.69657461	0.98002437	-0.28937349	0.21767256	0.87331364	0.30618142
304	1.212	0.040975703	0.031889367	-0.15079902	0.82188747	0.03892525	0.052746531	0.022162978	0.16734357	-0.18322563	0.68115217	0.055254298	0.094199329	0.052886593	0.16345548	-0.10292416	0.6959565	0.07728989	0.0075076364	-0.026008351	0.20804528	-0.13311161	0.6285415	0.029765616	0.052489807	0.31057285	0.41458535	-0.19508468	0.69596933	0.45683107	0.1006471	0.33581106	0.3658148	-0.082351097	0.68492133	0.45806166	-0.027268241	0.44084226	0.7711613	-0.21529746	0.54234809	0.83879416	0.16219036	0.52543479	0.87601907	-0.16244505	0.58274778	0.92536894	0.066882535	0.35815254	0.91160379	-0.0023577646	0.46456103	1.3768791	-0.17424454	0.43014645	1.3619052	0.14386284	0.36706588	1.3915581	-0.027072483	0.4517863	1.028297	-0.25900618	0.2749335	1.0630557	0.1647838	0.70088337	0.97830894	-0.28808364	0.22714671	0.87254111	0.30698572
305	1.216	0.045368121	0.034179822	-0.15133575	0.82196647	0.038824941	0.052911905	0.030638792	0.17059202	-0.18368915	0.68129337	0.055107213	0.09422701	0.061116225	0.16616373	-0.10346954	0.69606128	0.077346422	0.0077113183	-0.016270306	0.2127611	-0.1336913	0.62857159	0.02976932	0.052516209	0.32005688	0.41392849	-0.19522094	0.69908992	0.45662792	0.10155418	0.3472885	0.36465195	-0.082752119	0.68893321	0.4578261	-0.026393199	0.44845674	0.77100276	-0.21460293	0.54848234	0.84020263	0.16298073	0.53187571	0.87646338	-0.16143596	0.58884552	0.92649674	0.067712744	0.36364672	0.91236282	-0.0015035629	0.47075406	1.3778465	-0.17337858	0.43624491	1.3626488	0.14475126	0.37319743	1.392489	-0.02626843	0.45279601	1.030575	-0.25426386	0.28274376	1.0627103	0.16581674	0.70510182	0.97654039	-0.28681869	0.23683741	0.87177619	0.3077935
306	1.22	0.050340082	0.036790155	-0.15200331	0.82203739	0.0387425	0.05307969	0.039318307	0.17381763	-0.1841043	0.68134258	0.054960113	0.094281914	0.069501169	0.16898136	-0.1039478	0.69618029	0.077414462	0.0079105865	-0.0064972848	0.21726147	-0.13414746	0.62860935	0.029776531	0.052522292	0.33037528	0.41321359	-0.19530181	0.70195092	0.45646034	0.10242955	0.35877045	0.36376216	-0.082955235	0.69286834	0.45756602	-0.02543876	0.45592292	0.77103498	-0.21388539	0.55469995	0.84167247	0.16381935	0.53825911	0.87723446	-0.16048219	0.59487483	0.92761099	0.068487015	0.36919243	0.91311409	-0.00063473029	0.47690294	1.3788926	-0.17254949	0.44231551	1.3634611	0.14562367	0.37926229	1.3935336	-0.025381135	0.45300828	1.0332809	-0.24911837	0.29050884	1.062407	0.1669478	0.70922341	0.97471896	-0.28557471	0.24674125	0.87102653	0.3085954
307	1.224	0.055959587	0.039742405	-0.15281364	0.8220958	0.038680179	0.053248779	0.048135789	0.17704816	-0.18449017	0.68130628	0.054840043	0.094372408	0.078004172	0.17184034	-0.10428681	0.69630308	0.077490305	0.0081032505	0.0032331006	0.22153331	-0.1344208	0.62864414	0.029790248	0.052538961	0.34229046	0.41240492	-0.19514936	0.70455677	0.45630521	0.10328295	0.37001911	0.36312205	-0.082812201	0.69660208	0.45732843	-0.024483588	0.46322711	0.77125729	-0.21313959	0.56093469	0.84317648	0.16467181	0.54461772	0.87835853	-0.15956356	0.60083676	0.92870447	0.069202595	0.37493044	0.91387613	0.00028779473	0.48300441	1.3800168	-0.17175542	0.44836179	1.3643423	0.14647743	0.38527043	1.3946869	-0.024471024	0.45565406	1.035427	-0.24605669	0.29831518	1.0621387	0.16787802	0.71324034	0.97283146	-0.28434981	0.25683364	0.87028645	0.30937349
308	1.228	0.062292224	0.042976759	-0.15374293	0.82213727	0.038633242	0.053417053	0.057066791	0.18031441	-0.18483306	0.68123003	0.054759879	0.094483922	0.086640083	0.17470749	-0.10451003	0.69642045	0.077571416	0.008288216	0.012936422	0.22559028	-0.13454625	0.62867153	0.0298043	0.052570261	0.35575121	0.41153314	-0.19460054	0.70697687	0.4561733	0.10418017	0.38096795	0.36272125	-0.082371837	0.70000348	0.45714766	-0.023568673	0.47036748	0.77165853	-0.21235892	0.56716509	0.8446934	0.1655273	0.55086384	0.87974919	-0.15875243	0.60673398	0.92976908	0.069853987	0.38103876	0.91468996	0.0012601274	0.48905308	1.3812108	-0.17099765	0.45438193	1.3652885	0.14730935	0.39124484	1.3959367	-0.023611518	0.46275328	1.0364056	-0.24659071	0.30619276	1.0619052	0.16854719	0.71714188	0.97086554	-0.28314052	0.26709567	0.86954911	0.31011487
309	1.232	0.069377271	0.046361842	-0.154729	0.82216184	0.038592392	0.053579071	0.066105224	0.18361578	-0.18508227	0.68115263	0.054708379	0.094598676	0.095416095	0.1775531	-0.10461138	0.69653299	0.077655612	0.0084678667	0.022636169	0.22944946	-0.13456376	0.62869079	0.029813119	0.052605702	0.36962099	0.4107013	-0.19375159	0.70931914	0.45609892	0.10519779	0.39163204	0.36258069	-0.081795102	0.70305408	0.45704007	-0.022678156	0.47734728	0.7722215	-0.21152948	0.57339042	0.8462075	0.16638634	0.55691573	0.88131998	-0.15811282	0.61257561	0.93080523	0.070448972	0.38748079	0.91558728	0.0020884302	0.49504549	1.3824666	-0.17027618	0.46036504	1.3662978	0.14811541	0.39719928	1.3972624	-0.02282098	0.47285651	1.0366308	-0.24971899	0.31407502	1.0617081	0.16910842	0.7209169	0.96883658	-0.28194486	0.27752011	0.86881757	0.31081443
310	1.236	0.077212896	0.049756897	-0.15568481	0.82217272	0.038552394	0.053728048	0.075241955	0.18692275	-0.18519634	0.68110938	0.054660177	0.094692717	0.10430894	0.18036132	-0.10454065	0.69664302	0.077742998	0.0086483135	0.03231928	0.23311649	-0.1344957	0.62869744	0.029821169	0.052644457	0.38273745	0.41001376	-0.19293901	0.71161262	0.45608233	0.1063251	0.40205911	0.36272737	-0.081219795	0.705829	0.45701011	-0.021799323	0.48417054	0.7729322	-0.21064232	0.57958351	0.84770407	0.16723617	0.56277047	0.88304429	-0.15764379	0.61837094	0.93182253	0.071002817	0.39371578	0.91653789	0.0023476374	0.50098282	1.3837841	-0.16958594	0.46630151	1.3673691	0.14889046	0.40313552	1.398641	-0.022074655	0.48263449	1.0369696	-0.25291698	0.32187507	1.0615503	0.16973796	0.72455988	0.96678785	-0.28076482	0.28810515	0.8681038	0.31147012
311	1.24	0.085759907	0.053068028	-0.15652924	0.82217278	0.038514791	0.053860538	0.084488527	0.19019942	-0.18517317	0.6811482	0.054590175	0.094732228	0.11332504	0.18315693	-0.10430181	0.6967467	0.077835091	0.0088340705	0.041951661	0.23658648	-0.13436508	0.6286836	0.029835711	0.052693786	0.39484627	0.40952797	-0.19236876	0.71374552	0.45605932	0.10740066	0.41238595	0.3631465	-0.080678467	0.70840179	0.45704974	-0.020947662	0.49084204	0.77378358	-0.20970483	0.58567895	0.84916625	0.16804566	0.56846603	0.88491881	-0.15731295	0.62412177	0.93283463	0.071525301	0.39912158	0.91746982	0.0016873278	0.50686894	1.3851686	-0.16891983	0.47219581	1.368501	0.14963458	0.40904869	1.4000576	-0.021350683	0.49006882	1.0378795	-0.25439036	0.32957932	1.0614364	0.17048475	0.72807267	0.9647557	-0.27960117	0.29885451	0.86742244	0.31208132
